<svg width="127" height="41" viewBox="0 0 127 41" fill="none" xmlns="http://www.w3.org/2000/svg">
<g style="mix-blend-mode:darken">
<path d="M7.3178e-05 11.0327C-0.0217749 4.99968 4.85137 0.0912707 10.8846 0.0694234L30.0357 7.31757e-05C36.0689 -0.0217742 40.9775 4.85122 40.9993 10.8842L41.0685 29.9673C41.0903 36.0003 36.2172 40.9087 30.184 40.9306L11.0328 40.9999C4.99959 41.0218 0.0910295 36.1488 0.0691814 30.1158L7.3178e-05 11.0327Z" fill="#289976"/>
<path d="M6.87912 20.5336C6.87912 12.9923 12.9927 6.8789 20.5343 6.8789C28.0758 6.8789 34.1894 12.9923 34.1894 20.5336C34.1894 28.0749 28.0758 34.1883 20.5343 34.1883C12.9927 34.1883 6.87912 28.0749 6.87912 20.5336Z" fill="#D9D9D9"/>
<path d="M8.69981 20.5336C8.69981 13.9978 13.9983 8.69952 20.5343 8.69952C27.0703 8.69952 32.3687 13.9978 32.3687 20.5336C32.3687 27.0694 27.0703 32.3677 20.5343 32.3677C13.9983 32.3677 8.69981 27.0694 8.69981 20.5336Z" fill="#289976"/>
<path d="M10.5205 20.5336C10.5205 15.0033 15.0038 10.5202 20.5343 10.5202C26.0647 10.5202 30.548 15.0033 30.548 20.5336C30.548 26.0639 26.0647 30.547 20.5343 30.547C15.0038 30.547 10.5205 26.0639 10.5205 20.5336Z" fill="#D9D9D9"/>
<path d="M12.3412 20.5336C12.3412 16.0088 16.0093 12.3408 20.5343 12.3408C25.0592 12.3408 28.7273 16.0088 28.7273 20.5336C28.7273 25.0584 25.0592 28.7264 20.5343 28.7264C16.0093 28.7264 12.3412 25.0584 12.3412 20.5336Z" fill="#289976"/>
<path d="M14.1619 20.5336C14.1619 17.0143 17.0149 14.1614 20.5343 14.1614C24.0536 14.1614 26.9067 17.0143 26.9067 20.5336C26.9067 24.0529 24.0536 26.9058 20.5343 26.9058C17.0149 26.9058 14.1619 24.0529 14.1619 20.5336Z" fill="#D9D9D9"/>
<path d="M54.8542 13.7791L54.5993 15.6907H51.3221V26.3596H48.9005V15.6907H45.5141V13.7791H54.8542Z" fill="#289976"/>
<path d="M63.2582 21.3165C63.2582 21.4378 63.24 21.7534 63.2036 22.2632H57.1589C57.2317 23.1978 57.4745 23.8653 57.8872 24.2659C58.2999 24.6664 58.8461 24.8667 59.5258 24.8667C59.9506 24.8667 60.3512 24.7999 60.7275 24.6664C61.1037 24.5208 61.5043 24.3023 61.9291 24.011L62.8941 25.34C61.8259 26.2018 60.6364 26.6327 59.3255 26.6327C57.8568 26.6327 56.722 26.1836 55.9209 25.2854C55.1319 24.3873 54.7374 23.1614 54.7374 21.6078C54.7374 20.6246 54.9073 19.7447 55.2472 18.9679C55.5871 18.1789 56.0786 17.566 56.722 17.129C57.3653 16.6799 58.13 16.4554 59.016 16.4554C60.3633 16.4554 61.4072 16.8863 62.1476 17.748C62.888 18.5977 63.2582 19.7871 63.2582 21.3165ZM60.9459 20.6428C60.9459 18.9557 60.3208 18.1122 59.0706 18.1122C58.5002 18.1122 58.0511 18.3246 57.7233 18.7494C57.4077 19.1621 57.2196 19.8296 57.1589 20.7521H60.9459V20.6428Z" fill="#289976"/>
<path d="M67.6247 26.6327C66.8843 26.6327 66.3017 26.4203 65.8769 25.9955C65.4642 25.5585 65.2578 24.9456 65.2578 24.1566V12.8688L67.5883 12.6139V24.0838C67.5883 24.5329 67.7704 24.7574 68.1345 24.7574C68.3166 24.7574 68.4987 24.7271 68.6807 24.6664L69.1723 26.305C68.6868 26.5235 68.1709 26.6327 67.6247 26.6327Z" fill="#289976"/>
<path d="M78.5314 21.3165C78.5314 21.4378 78.5131 21.7534 78.4767 22.2632H72.4321C72.5049 23.1978 72.7476 23.8653 73.1603 24.2659C73.573 24.6664 74.1192 24.8667 74.7989 24.8667C75.2238 24.8667 75.6243 24.7999 76.0006 24.6664C76.3769 24.5208 76.7774 24.3023 77.2023 24.011L78.1672 25.34C77.0991 26.2018 75.9096 26.6327 74.5987 26.6327C73.13 26.6327 71.9951 26.1836 71.194 25.2854C70.405 24.3873 70.0105 23.1614 70.0105 21.6078C70.0105 20.6246 70.1805 19.7447 70.5203 18.9679C70.8602 18.1789 71.3518 17.566 71.9951 17.129C72.6384 16.6799 73.4031 16.4554 74.2892 16.4554C75.6365 16.4554 76.6803 16.8863 77.4207 17.748C78.1611 18.5977 78.5314 19.7871 78.5314 21.3165ZM76.2191 20.6428C76.2191 18.9557 75.594 18.1122 74.3438 18.1122C73.7733 18.1122 73.3242 18.3246 72.9965 18.7494C72.6809 19.1621 72.4927 19.8296 72.4321 20.7521H76.2191V20.6428Z" fill="#289976"/>
<path d="M83.6626 16.4554C84.9613 16.4554 86.1023 16.8377 87.0854 17.6024L86.1751 18.9679C85.3497 18.4459 84.5426 18.185 83.7536 18.185C83.2923 18.185 82.9343 18.276 82.6794 18.4581C82.4245 18.628 82.297 18.8586 82.297 19.1499C82.297 19.3684 82.3517 19.5505 82.4609 19.6961C82.5701 19.8418 82.7643 19.9813 83.0435 20.1149C83.3348 20.2362 83.7597 20.3758 84.318 20.5336C85.3619 20.8128 86.1326 21.183 86.6303 21.6442C87.1401 22.1054 87.395 22.7487 87.395 23.574C87.395 24.5329 87.0065 25.2854 86.2297 25.8316C85.4529 26.3657 84.4879 26.6327 83.3348 26.6327C82.5459 26.6327 81.8237 26.5113 81.1682 26.2686C80.5249 26.0258 79.9666 25.692 79.4932 25.2672L80.6584 23.9564C81.4959 24.5875 82.3699 24.9031 83.2802 24.9031C83.8021 24.9031 84.2148 24.7999 84.5183 24.5936C84.8339 24.3873 84.9917 24.102 84.9917 23.7379C84.9917 23.4587 84.931 23.2403 84.8096 23.0825C84.7003 22.9125 84.494 22.7669 84.1906 22.6455C83.8992 22.512 83.438 22.3542 82.8068 22.1722C81.8237 21.9051 81.1015 21.5349 80.6402 21.0616C80.179 20.5761 79.9484 19.9753 79.9484 19.2592C79.9484 18.7251 80.1001 18.2457 80.4035 17.8209C80.7191 17.396 81.1561 17.0623 81.7144 16.8195C82.2849 16.5768 82.9343 16.4554 83.6626 16.4554Z" fill="#289976"/>
<path d="M93.159 16.4554C93.7902 16.4554 94.3546 16.5464 94.8522 16.7285C95.362 16.9105 95.8415 17.1958 96.2906 17.5842L95.2528 18.9861C94.9251 18.7433 94.6095 18.5673 94.306 18.4581C94.0026 18.3488 93.6688 18.2942 93.3047 18.2942C91.8602 18.2942 91.138 19.3927 91.138 21.5896C91.138 22.7062 91.3262 23.5134 91.7024 24.011C92.0787 24.4965 92.6128 24.7392 93.3047 24.7392C93.6445 24.7392 93.954 24.6846 94.2332 24.5754C94.5245 24.4661 94.8644 24.2902 95.2528 24.0474L96.2906 25.5221C95.3802 26.2625 94.3424 26.6327 93.1772 26.6327C92.2547 26.6327 91.4536 26.4324 90.7739 26.0319C90.0942 25.6192 89.5722 25.0366 89.2081 24.2841C88.844 23.5316 88.6619 22.6455 88.6619 21.626C88.6619 20.6064 88.844 19.7082 89.2081 18.9314C89.5722 18.1425 90.0942 17.5356 90.7739 17.1108C91.4536 16.6739 92.2487 16.4554 93.159 16.4554Z" fill="#289976"/>
<path d="M101.553 16.4554C102.973 16.4554 104.077 16.9105 104.866 17.8209C105.667 18.719 106.068 19.9571 106.068 21.5349C106.068 22.5424 105.886 23.4345 105.522 24.2113C105.157 24.9759 104.636 25.5707 103.956 25.9955C103.276 26.4203 102.469 26.6327 101.534 26.6327C100.114 26.6327 99.0035 26.1836 98.2024 25.2854C97.4013 24.3751 97.0008 23.125 97.0008 21.5349C97.0008 20.5275 97.1829 19.6415 97.547 18.8768C97.9111 18.1122 98.4331 17.5174 99.1128 17.0926C99.8046 16.6678 100.618 16.4554 101.553 16.4554ZM101.553 18.2214C100.157 18.2214 99.4587 19.3259 99.4587 21.5349C99.4587 22.6759 99.6286 23.5194 99.9685 24.0656C100.321 24.5997 100.842 24.8667 101.534 24.8667C102.226 24.8667 102.742 24.5936 103.082 24.0474C103.434 23.5012 103.61 22.6637 103.61 21.5349C103.61 20.4062 103.434 19.5747 103.082 19.0407C102.742 18.4945 102.232 18.2214 101.553 18.2214Z" fill="#289976"/>
<path d="M113.241 16.4554C114.455 16.4554 115.353 16.8984 115.936 17.7844C116.518 18.6705 116.81 19.9146 116.81 21.5167C116.81 22.512 116.658 23.398 116.354 24.1748C116.063 24.9395 115.626 25.5403 115.043 25.9773C114.473 26.4142 113.793 26.6327 113.004 26.6327C111.985 26.6327 111.178 26.2807 110.583 25.5767V30.0737L108.252 30.3286V16.7285H110.292L110.419 17.9119C110.795 17.4264 111.226 17.0623 111.712 16.8195C112.197 16.5768 112.707 16.4554 113.241 16.4554ZM112.349 24.8485C113.696 24.8485 114.37 23.744 114.37 21.5349C114.37 20.3576 114.218 19.508 113.915 18.9861C113.611 18.4641 113.156 18.2032 112.549 18.2032C112.161 18.2032 111.797 18.3246 111.457 18.5673C111.117 18.7979 110.826 19.1135 110.583 19.514V23.8471C111.032 24.5147 111.621 24.8485 112.349 24.8485Z" fill="#289976"/>
<path d="M127 21.3165C127 21.4378 126.982 21.7534 126.945 22.2632H120.901C120.974 23.1978 121.216 23.8653 121.629 24.2659C122.042 24.6664 122.588 24.8667 123.268 24.8667C123.692 24.8667 124.093 24.7999 124.469 24.6664C124.846 24.5208 125.246 24.3023 125.671 24.011L126.636 25.34C125.568 26.2018 124.378 26.6327 123.067 26.6327C121.599 26.6327 120.464 26.1836 119.663 25.2854C118.874 24.3873 118.479 23.1614 118.479 21.6078C118.479 20.6246 118.649 19.7447 118.989 18.9679C119.329 18.1789 119.82 17.566 120.464 17.129C121.107 16.6799 121.872 16.4554 122.758 16.4554C124.105 16.4554 125.149 16.8863 125.889 17.748C126.63 18.5977 127 19.7871 127 21.3165ZM124.688 20.6428C124.688 18.9557 124.063 18.1122 122.812 18.1122C122.242 18.1122 121.793 18.3246 121.465 18.7494C121.15 19.1621 120.961 19.8296 120.901 20.7521H124.688V20.6428Z" fill="#289976"/>
</g>
</svg>
